<svg width="40" height="40" version="1.1" viewBox="0 0 10.6 10.6" xmlns="http://www.w3.org/2000/svg">
 <g stroke-width=".0178">
  <g fill="#8358fd">
   <path d="m2.74 5.31c2e-7 -1.88 0.00208-2.65 0.00463-1.7 0.00255 0.943 0.00255 2.48-4e-7 3.42-0.00255 0.936-0.00463 0.165-0.00463-1.71zm4.85 2.71c0-0.00306 0.026-0.0291 0.0578-0.0578l0.0578-0.0523-0.0523 0.0578c-0.0487 0.0539-0.0634 0.066-0.0634 0.0523zm-2-0.862c0.0615-0.00348 0.158-0.00346 0.214 7.12e-5 0.0559 0.00352 0.00553 0.00637-0.112 0.00634-0.117-3.56e-5 -0.163-0.00291-0.102-0.0064zm-0.319-0.107c-0.0221-0.0282-0.0215-0.0289 0.00672-0.00672 0.0296 0.0232 0.0391 0.0379 0.0244 0.0379-0.00369 0-0.0177-0.014-0.0311-0.0311zm-0.993-0.0682c8.54e-4 -0.0207 0.00507-0.0249 0.0108-0.0108 0.00514 0.0128 0.00451 0.0282-0.0014 0.0341-0.00591 0.00591-0.0101-0.0046-0.00935-0.0234zm0.897-1.67c-1.1e-6 -0.851 0.00217-1.2 0.00483-0.78s0.00266 1.12 2.1e-6 1.55c-0.00266 0.429-0.00483 0.0832-0.00483-0.768zm3.39 0.408c8.54e-4 -0.0207 0.00507-0.0249 0.0108-0.0108 0.00514 0.0128 0.00451 0.0282-0.0014 0.0341-0.00591 0.00591-0.0101-0.0046-0.00935-0.0234zm0.0199-0.408c3.63e-4 -0.0294 0.00435-0.0392 0.00886-0.0219s0.00421 0.0413-6.6e-4 0.0534c-0.00487 0.012-0.00857-0.00212-0.0082-0.0315zm-0.0199-0.411c8.54e-4 -0.0207 0.00507-0.0249 0.0108-0.0108 0.00514 0.0128 0.00451 0.0282-0.0014 0.0341-0.00591 0.00591-0.0101-0.0046-0.00935-0.0234zm-4.29-1.28c8.54e-4 -0.0207 0.00507-0.0249 0.0108-0.0108 0.00514 0.0128 0.00451 0.0282-0.0014 0.0341-0.00591 0.00591-0.0101-0.0046-0.00935-0.0234zm0.912-0.661c0.135-0.00303 0.351-0.00302 0.48 1.73e-5 0.129 0.00304 0.0185 0.00551-0.246 0.0055-0.264-9.4e-6 -0.37-0.00249-0.235-0.00552zm0.728-1.07c0.0171-0.00448 0.0452-0.00448 0.0623 0s0.00311 0.00814-0.0311 0.00814c-0.0343 0-0.0483-0.00366-0.0311-0.00814z"/>
   <path d="m6.06 8.7c0.0128-0.00514 0.0282-0.00451 0.0341 0.0014 0.00591 0.00591-0.0046 0.0101-0.0234 0.00935-0.0207-8.54e-4 -0.0249-0.00507-0.0108-0.0108zm1.7-0.878c0.0177-0.0196 0.0362-0.0356 0.0411-0.0356 0.00489 0-0.0056 0.016-0.0233 0.0356s-0.0362 0.0356-0.0411 0.0356c-0.00489 0 0.0056-0.016 0.0233-0.0356zm-3.28-0.396-0.0339-0.04 0.04 0.0339c0.0376 0.0319 0.0481 0.0462 0.0339 0.0462-0.00338 0-0.0214-0.018-0.04-0.04zm4.09-1.77c0-0.0245 0.00404-0.0345 0.00897-0.0222 0.00494 0.0122 0.00494 0.0323 0 0.0445s-0.00897 0.00222-0.00897-0.0222zm0-0.694c0-0.0245 0.00404-0.0345 0.00897-0.0222 0.00494 0.0122 0.00494 0.0323 0 0.0445s-0.00897 0.00222-0.00897-0.0222zm-5.03-3.07c0.439-0.00265 1.15-0.00265 1.58 2e-6 0.432 0.00265 0.0734 0.00482-0.798 0.00482-0.871-1.1e-6 -1.22-0.00217-0.786-0.00482z"/>
   <path d="m2.75 5.31v-3.41l1.66 1.07e-4c1.8 1.07e-4 1.82 0.00128 2.16 0.098 0.188 0.0541 0.497 0.201 0.685 0.326 0.397 0.263 0.722 0.643 0.953 1.12 0.173 0.353 0.272 0.697 0.34 1.18 0.0476 0.341 0.0431 1.08-0.00859 1.41-0.0783 0.505-0.171 0.812-0.353 1.17-0.366 0.713-0.95 1.22-1.64 1.41-0.323 0.0928-0.411 0.0968-2.17 0.0972l-1.62 3.46e-4zm3.15 2.09v-0.249h-0.214c-0.291 0-0.39-0.0434-0.464-0.205-0.0311-0.0675-0.0329-0.153-0.0332-1.64-4.29e-4 -1.72-0.00584-1.63 0.108-1.74 0.0822-0.08 0.199-0.111 0.42-0.111h0.184v-0.498h-0.477c-0.519 0-0.607 0.0117-0.772 0.102-0.118 0.0644-0.237 0.196-0.305 0.339l-0.0567 0.12v3.59l0.0553 0.117c0.0626 0.132 0.201 0.281 0.315 0.34 0.153 0.0786 0.195 0.0835 0.729 0.0847l0.512 0.00119z"/>
  </g>
 </g>
 <path transform="scale(.265)" d="m18.6 28.8c-0.4-0.0326-0.634-0.0902-0.904-0.223-0.462-0.227-1.05-0.831-1.31-1.35l-0.198-0.393v-13.5l0.194-0.406c0.4-0.838 1.2-1.47 2.03-1.61 0.226-0.0366 1.17-0.0668 2.11-0.0671l1.7-4.8e-4v1.76l-0.751 0.0404c-0.793 0.0426-1.15 0.133-1.48 0.372-0.359 0.265-0.395 0.408-0.448 1.8-0.0602 1.59-0.0598 7.57 5.77e-4 9.52 0.0609 1.97 0.0857 2.01 1.19 2.29 0.302 0.0756 0.574 0.0966 0.951 0.0731l0.528-0.0329v1.83l-1.54-0.0094c-0.847-0.0051-1.78-0.0291-2.08-0.0533z" fill="#fff" stroke-width=".0635"/>
</svg>
