<svg xmlns="http://www.w3.org/2000/svg" width="16" height="16" viewBox="0 0 16 16">
  <g fill="none" fill-rule="evenodd">
    <path fill="#DE7539" d="M11.9310986,4.94346885 L6.97323944,0.412017238 C6.35650704,-0.153466633 5.36676056,-0.134434375 4.77385915,0.454114012 C4.18112676,1.04250111 4.20073239,1.98653337 4.81712676,2.55169466 L6.1748169,3.77895272 C3.75470423,4.50814627 2,6.66733982 2,9.21798498 C2,12.3673398 4.67549296,14.9205656 7.97583099,14.9205656 C11.276169,14.9205656 13.951662,12.3673398 13.951662,9.21798498 C13.951662,7.51588821 13.1701408,5.98846885 11.9310986,4.94346885"/>
    <path fill="#FFF" d="M12,9.50005728 C12,9.24320634 11.8914388,9.01040649 11.7180372,8.84370123 C11.7171109,8.83929492 11.7163699,8.83543941 11.7154436,8.8310331 L8.13829516,5.28615967 C7.75462566,4.90574856 7.12641549,4.90446338 6.74256073,5.28322213 C6.35870597,5.66234807 6.35870597,6.28345366 6.74256073,6.66404837 L8.67998981,8.58427995 L4.9242526,8.58427995 C4.41590441,8.58427995 4,8.99626959 4,9.50005728 C4,10.0036614 4.41590441,10.415651 4.9242526,10.415651 L8.67998981,10.415651 L6.74256073,12.3360662 C6.35870597,12.7164773 6.35870597,13.3377665 6.74256073,13.7167088 C7.12641549,14.0956512 7.75462566,14.0941824 8.13829516,13.7137713 L11.7154436,10.1688979 C11.7163699,10.1644915 11.7171109,10.160636 11.7180372,10.1562297 C11.8914388,9.98952447 12,9.75690822 12,9.50005728"/>
  </g>
</svg>
