<svg xmlns="http://www.w3.org/2000/svg" xmlns:xlink="http://www.w3.org/1999/xlink" width="40" height="40" viewBox="0 0 40 40">
  <defs>
    <polygon id="drupal-a" points="0 .019 27.999 .019 27.999 33 0 33"/>
  </defs>
  <g fill="none" fill-rule="evenodd" transform="translate(6 4)">
    <mask id="drupal-b" fill="#fff">
      <use xlink:href="#drupal-a"/>
    </mask>
    <path fill="#136DA9" d="M9.2099,5.2607 C3.5579,7.7127 -0.0001,12.5217 -0.0001,18.7007 C-0.0001,26.5977 6.2679,32.9997 13.9999,32.9997 C21.7309,32.9997 27.9989,26.5977 27.9989,18.7007 C27.9989,9.2057 19.3619,5.4317 19.3619,5.4317 C19.3619,5.4317 17.4759,4.6317 16.4209,3.9127 C16.4209,3.9127 15.0879,3.0817 12.7649,0.0187 C12.7649,0.0187 12.8169,3.4987 9.2099,5.2607" mask="url(#drupal-b)"/>
    <path fill="#F0F0F0" d="M12.5986,30.2324 C12.1076,29.8824 12.2236,28.7714 13.5566,29.5654 C13.5566,29.5654 16.3936,31.6944 20.8856,29.1404 C21.2346,28.9424 21.6626,29.6424 20.5526,30.2844 C20.5526,30.2844 16.0136,32.6564 12.5986,30.2324"/>
    <path stroke="#FFFDFF" stroke-width=".013" d="M12.5986,30.2324 C12.1076,29.8824 12.2236,28.7714 13.5566,29.5654 C13.5566,29.5654 16.3936,31.6944 20.8856,29.1404 C21.2346,28.9424 21.6626,29.6424 20.5526,30.2844 C20.5526,30.2844 16.0136,32.6564 12.5986,30.2324 Z"/>
    <path fill="#F0F0F0" d="M18.3867,26.7021 C20.0387,26.8991 19.4707,27.7111 19.9137,27.8361 C20.8167,28.0921 20.4277,27.0851 20.4277,27.0851 C19.7607,25.7231 18.6097,25.8081 18.6097,25.8081 C16.8047,25.5251 15.4577,27.2831 15.4577,27.2831 C15.1247,28.0341 15.5907,28.0731 15.7637,27.9921 C16.6377,27.5811 17.1697,26.5561 18.3867,26.7021"/>
    <path stroke="#FFFDFF" stroke-width=".013" d="M18.3867,26.7021 C20.0387,26.8991 19.4707,27.7111 19.9137,27.8361 C20.8167,28.0921 20.4277,27.0851 20.4277,27.0851 C19.7607,25.7231 18.6097,25.8081 18.6097,25.8081 C16.8047,25.5251 15.4577,27.2831 15.4577,27.2831 C15.1247,28.0341 15.5907,28.0731 15.7637,27.9921 C16.6377,27.5811 17.1697,26.5561 18.3867,26.7021 Z"/>
    <path fill="#008ECE" d="M1.832,25.8916 C1.832,25.8916 6.852,30.1326 19.067,20.6826 C19.067,20.6826 25.202,16.7486 25.018,10.0036 C25.018,10.0036 23.032,7.0896 19.682,5.5866 C19.206,5.3726 15.02,3.0396 12.759,0.1136 C12.759,0.1136 12.349,8.6016 1.705,11.9526 C1.705,11.9526 -0.977,15.9926 0.485,22.5596 C0.485,22.5596 1.421,25.2226 1.832,25.8916"/>
    <path fill="#F0F0F0" d="M9.7949,27.4678 C9.7949,27.4678 5.6299,27.5808 6.1299,23.0438 C6.1299,23.0438 6.9999,17.9398 12.8489,19.0738 C12.8489,19.0738 14.1259,19.3578 16.5129,21.2298 C16.5129,21.2298 18.0889,22.4698 18.9559,22.4468 C18.9559,22.4468 19.6289,22.5128 21.0289,21.6078 C21.0289,21.6078 23.8839,19.3578 24.8819,19.4238 C24.9059,19.4258 26.8959,19.2018 26.8959,22.4768 C26.8959,22.4768 26.9329,26.0878 24.2679,27.2978 C24.2679,27.2978 23.5649,27.5428 22.8059,26.7308 C22.8059,26.7308 20.6219,24.1968 19.5479,23.7808 C19.5479,23.7808 18.9289,23.5328 18.1049,23.8378 C18.1049,23.8378 17.5679,23.8948 15.3649,25.3878 C15.3649,25.3878 11.6639,27.7508 9.7949,27.4678"/>
    <path stroke="#FFFDFF" stroke-width=".013" d="M9.7949,27.4678 C9.7949,27.4678 5.6299,27.5808 6.1299,23.0438 C6.1299,23.0438 6.9999,17.9398 12.8489,19.0738 C12.8489,19.0738 14.1259,19.3578 16.5129,21.2298 C16.5129,21.2298 18.0889,22.4698 18.9559,22.4468 C18.9559,22.4468 19.6289,22.5128 21.0289,21.6078 C21.0289,21.6078 23.8839,19.3578 24.8819,19.4238 C24.9059,19.4258 26.8959,19.2018 26.8959,22.4768 C26.8959,22.4768 26.9329,26.0878 24.2679,27.2978 C24.2679,27.2978 23.5649,27.5428 22.8059,26.7308 C22.8059,26.7308 20.6219,24.1968 19.5479,23.7808 C19.5479,23.7808 18.9289,23.5328 18.1049,23.8378 C18.1049,23.8378 17.5679,23.8948 15.3649,25.3878 C15.3649,25.3878 11.6639,27.7508 9.7949,27.4678 Z"/>
    <path fill="#008ECE" d="M11.997,11.1914 C14.693,7.2474 12.759,0.0004 12.759,0.0004 C12.52,3.9324 9.272,5.2294 9.272,5.2294 C3.457,7.7934 1.705,11.8384 1.705,11.8384 C2.951,13.6444 6.26,19.5844 11.997,11.1914"/>
    <path fill="#A0D8F1" d="M12.7587,0 C12.7587,0 13.1077,3.309 11.3497,4.386 C11.3497,4.386 8.5297,5.727 7.6687,6.166 C7.6687,6.166 4.0477,8.398 2.8547,10.497 C2.8547,10.497 0.2997,13.987 3.8257,13.162 C3.8257,13.162 10.2017,11.323 12.7927,5.775 C12.7927,5.775 12.9457,5.308 12.4597,4.825 C12.4597,4.825 14.4037,3.327 12.7587,0"/>
    <path fill="#F0F0F0" d="M12.7587,0 C12.7587,0 12.9047,2.259 11.0677,4.131 C11.0677,4.131 10.5167,4.924 7.6687,6.166 C7.6687,6.166 4.4087,7.902 2.9467,10.31 C2.9467,10.31 0.7807,12.978 3.7507,12.263 C3.7507,12.263 9.7697,9.998 11.9747,5.838 C11.9747,5.838 12.2727,5.4 11.8187,4.95 C11.8187,4.95 13.9777,3.228 12.7587,0"/>
  </g>
</svg>
