<svg width="40" height="40" viewBox="0 0 40 40" fill="none" xmlns="http://www.w3.org/2000/svg">
<path fill-rule="evenodd" clip-rule="evenodd" d="M20 29.3802V22C20 21.4696 20.2107 20.9609 20.5858 20.5858C20.9609 20.2107 21.4696 20 22 20H29.9243C31.7325 17.5874 33.1113 14.8811 34 12C33.9583 14.777 33.2985 17.5098 32.0687 20H39C38.872 13.8868 37.8616 7.82422 36 2C32.6027 6.96924 26.2286 10.6714 21 12C16.2657 13.1442 13.4665 13.2668 9.0849 14.9733C6.77747 15.7736 4.76821 17.2572 3.32409 19.2267C1.87997 21.1963 1.06937 23.5587 1 26C1.05655 27.5418 1.44283 29.0536 2.13282 30.4336C2.8228 31.8136 3.80048 33.0297 5 34C9.33658 33.3318 13.5804 32.1601 17.6455 30.5085C18.4594 30.1964 19.2468 29.8191 20 29.3802V29.3802Z" fill="#6CC149"/>
<path fill-rule="evenodd" clip-rule="evenodd" d="M20 34.9004V32.5887C16.7684 34.2532 15.3748 34.1184 10 36C9.33362 36.2331 7 37 7 37H10C10 37 16.1889 37.013 20 37.0067V34.9004Z" fill="#6CC149"/>
<path d="M22 22H40V24.7H22V22ZM22 37.3H40V40H22V37.3ZM22 32.2H40V34.9H22V32.2ZM22 27.1H40V29.8H22V27.1Z" fill="#8F989D"/>
</svg>
