<?xml version="1.0" encoding="UTF-8" standalone="no"?>
<svg
        xmlns:xlink="http://www.w3.org/1999/xlink"
        width="16"
        height="16"
        viewBox="0 0 16 16"
        fill="none"
        version="1.1"
        id="svg33"
        xmlns="http://www.w3.org/2000/svg">

    <defs
            id="defs37">
        <linearGradient
                id="linearGradient1137">
            <stop
                    style="stop-color:#ffffff;stop-opacity:0.11;"
                    offset="0"
                    id="stop1133" />
            <stop
                    style="stop-color:#000000;stop-opacity:0.38999999;"
                    offset="1"
                    id="stop1135" />
        </linearGradient>

        <linearGradient
                id="linearGradient305">
            <stop
                    style="stop-color:#ae29f6;stop-opacity:1;"
                    offset="0.2027027"
                    id="stop301" />
            <stop
                    style="stop-color:#1d2954;stop-opacity:1;"
                    offset="0.38851351"
                    id="stop303" />
        </linearGradient>
        <linearGradient
                id="linearGradient261">
            <stop
                    style="stop-color:#0000ff;stop-opacity:1"
                    offset="0"
                    id="stop257" />
            <stop
                    style="stop-color:#550000;stop-opacity:1"
                    offset="1"
                    id="stop259" />
        </linearGradient>
        <linearGradient
                xlink:href="#linearGradient261"
                id="linearGradient263"
                x1="0.20338981"
                y1="17.016949"
                x2="11.661017"
                y2="4.0000005"
                gradientUnits="userSpaceOnUse" />
        <linearGradient
                xlink:href="#linearGradient305"
                id="linearGradient307"
                x1="3.8794458"
                y1="13.921811"
                x2="18.543369"
                y2="-2.7606308"
                gradientUnits="userSpaceOnUse" />
        <linearGradient
                xlink:href="#linearGradient1137"
                id="linearGradient1139"
                x1="14.190075"
                y1="2.2052143"
                x2="2.157275"
                y2="11.409588"
                gradientUnits="userSpaceOnUse" />
    </defs>
    <path
            fill-rule="evenodd"
            clip-rule="evenodd"
            d="m 8,1.7714844 c -0.3254729,0 -0.6158653,0.1951161 -0.7402344,0.4941406 L 5.859375,5.6289062 2.2304688,5.9199219 C 1.9077336,5.9457958 1.6313496,6.1626253 1.53125,6.4707031 1.431176,6.7787021 1.5272763,7.1172695 1.7734375,7.328125 l 2.765625,2.3671875 -0.8457031,3.5449215 c -0.075276,0.31566 0.046814,0.645599 0.3085937,0.835938 0.2625679,0.190739 0.6146674,0.203747 0.890625,0.03516 L 8,12.212891 l 3.107422,1.898437 c 0.276019,0.168687 0.627931,0.155676 0.890625,-0.03516 0.26172,-0.190284 0.383786,-0.520225 0.308594,-0.835938 L 11.460938,9.6953125 14.226562,7.328125 C 14.472695,7.1173078 14.568801,6.7786798 14.46875,6.4707031 14.368654,6.1625863 14.092192,5.9457924 13.769531,5.9199219 L 10.140625,5.6289062 8.7421875,2.265625 C 8.617767,1.9664768 8.3236877,1.7714844 8,1.7714844 Z"
            fill="#2d31eb"
            id="path1599"
            style="display:inline;opacity:0.05;fill:#ffffff;fill-opacity:1"
/> <circle
            style="display:inline;opacity:1;fill:#ffffff;fill-opacity:1"
            id="circle327"
            cx="8"
            cy="8"
            r="7.5744319" />
    <circle
            style="display:inline;opacity:1;fill:url(#linearGradient1139);fill-opacity:1"
            id="path5881"
            cx="8"
            cy="8"
            r="7.5744319" />
    <path
            fill-rule="evenodd"
            clip-rule="evenodd"
            d="M 8.46197,2.38123 C 8.38441,2.19475 8.20227,2.07324 8.00031,2.07324 c -0.20197,0 -0.3841,0.12151 -0.46166,0.30799 L 6.06891,5.9149 2.25401,6.22074 C 2.05269,6.23688 1.88085,6.37255 1.81844,6.56463 1.75603,6.75671 1.8153,6.96748 1.96869,7.09887 l 2.90655,2.48977 -0.888,3.72266 c -0.04686,0.1965 0.02907,0.4018 0.19246,0.5206 0.1634,0.1187 0.38216,0.1274 0.55452,0.0221 l 3.26609,-1.9949 3.26609,1.9949 c 0.1723,0.1053 0.3911,0.0966 0.5545,-0.0221 0.1634,-0.1188 0.2393,-0.3241 0.1925,-0.5206 L 11.1254,9.58864 14.0319,7.09887 C 14.1853,6.96748 14.2446,6.75671 14.1822,6.56463 14.1198,6.37255 13.9479,6.23688 13.7466,6.22074 L 9.9317,5.9149 Z"
            fill="#2d31eb"
            id="path31"
            style="display:inline;fill:url(#linearGradient307);fill-opacity:1" />
    <circle
            style="display:inline;opacity:1;fill:url(#linearGradient1139);fill-opacity:1"
            id="circle2685"
            cx="8"
            cy="8"
            r="7.5744319" />
</svg>
