<!--
  - Copyright 2024 Oracle and/or its affiliates
  -
  - Licensed under the Apache License, Version 2.0 (the "License");
  - you may not use this file except in compliance with the License.
  - You may obtain a copy of the License at
  -
  - https://www.apache.org/licenses/LICENSE-2.0
  -
  - Unless required by applicable law or agreed to in writing, software
  - distributed under the License is distributed on an "AS IS" BASIS,
  - WITHOUT WARRANTIES OR CONDITIONS OF ANY KIND, either express or implied.
  - See the License for the specific language governing permissions and
  - limitations under the License.
  -->

<svg width="44" height="44" xml:space="preserve" xmlns="http://www.w3.org/2000/svg" xmlns:xlink="http://www.w3.org/1999/xlink"><defs><linearGradient id="a"><stop stop-color="#b3f0ff" offset="0"/><stop stop-color="#4251ff" offset="1"/></linearGradient><linearGradient id="d" x1="17.068" x2="75.719" y1="97.486" y2="97.486" gradientTransform="matrix(.38277 0 0 .35364 44.055 40.27)" gradientUnits="userSpaceOnUse" xlink:href="#a"/><linearGradient id="b" x1="64.821" x2="127.2" y1="85.957" y2="85.957" gradientTransform="matrix(.37154 0 0 .35364 43.503 39.708)" gradientUnits="userSpaceOnUse"><stop stop-color="#b0b0b0" stop-opacity=".188" offset="0"/><stop stop-color="#adadad" offset="1"/></linearGradient><linearGradient id="c" x1="17.068" x2="75.719" y1="97.486" y2="97.486" gradientTransform="matrix(.38277 0 0 .36711 44.055 39.49)" gradientUnits="userSpaceOnUse" xlink:href="#a"/><radialGradient id="e" cx="85.202" cy="119.49" r="30.99" gradientTransform="matrix(.37154 0 0 .36944 45.466 39.043)" gradientUnits="userSpaceOnUse"><stop stop-color="#e7b43e" offset=".246"/><stop stop-color="#c46b23" offset="1"/></radialGradient></defs><path d="M68.587 55.636v4.625c3 .625 6 1.875 6 4.375v5h12v2l-5.844-.08.219 2.08h5.625v1.168c1 .58 2.734 3.586 3 5.217l-2.623 1.885c.124 1.058.13 1.297.047 2.433l1.886 1.297h1.69v-19h-12v-11zm12 0v9h10z" fill="url(#b)" transform="translate(-48.587 -53.636)"/><path d="M61.799 60.738c-6.192 0-11.21 1.792-11.21 4.002s5.019 4.002 11.21 4.002c6.192 0 11.21-1.792 11.21-4.002s-5.019-4.002-11.21-4.002z" fill="url(#c)" transform="matrix(1.0244 0 0 .99952 -49.823 -53.71)"/><g fill="url(#d)" stroke-width="2.008" transform="matrix(1.0244 0 0 .99952 -49.823 -53.71)"><path d="m50.617 81.871.008 4.299c.003 2.129 5.02 3.855 11.212 3.855 1.314 0 2.568-.082 3.74-.224a19.603 19.603 0 0 1-1.6-3.467l2.761-1.82c-.004-.032-.005-.062-.01-.095-1.535.235-3.199.34-4.899.34-4.634 0-9.037-.75-11.212-2.888zM50.571 74.657l.008 4.416c.004 2.026 5.018 3.668 11.21 3.668a31.41 31.41 0 0 0 4.88-.37c.017-.134.039-.267.069-.4l-2.715-1.933c.247-.715.675-1.612 1.176-2.507-1.16.128-2.32.187-3.391.194-3.943.025-9.116-.648-11.237-3.068zM50.588 67.756c2.138 2.258 6.992 3.018 11.211 2.994 4.053-.023 9.728-.877 11.239-3.167l-.035 4.307c-.017 2.13-5.02 3.855-11.21 3.855-6.193 0-11.216-1.726-11.212-3.855z"/></g><path d="m85.884 84.844 2.751 1.868a11.307 11.307 0 0 1-2.524 4.137l-3.085-1.317a9.06 9.06 0 0 1-3.043 1.666l-.336 3.188c-.815.164-1.66.25-2.525.25-.867 0-1.711-.086-2.526-.25l-.336-3.188a9.054 9.054 0 0 1-3.043-1.666l-3.085 1.317a11.308 11.308 0 0 1-2.524-4.137l2.751-1.868a8.055 8.055 0 0 1 0-3.315l-2.751-1.868a11.307 11.307 0 0 1 2.524-4.137l3.086 1.317a9.059 9.059 0 0 1 3.042-1.666l.336-3.188c.815-.163 1.66-.25 2.526-.25.866 0 1.71.087 2.525.25l.336 3.188a9.056 9.056 0 0 1 3.043 1.666l3.085-1.317a11.309 11.309 0 0 1 2.525 4.137l-2.752 1.868a8.055 8.055 0 0 1 0 3.315zm-8.763 1.833c1.934-.05 3.741-1.347 3.692-3.303-.058-2.263-1.676-3.703-3.692-3.677-2.149.028-3.69 1.406-3.69 3.49 0 2.033 1.917 3.536 3.69 3.49z" fill="url(#e)" fill-rule="evenodd" transform="translate(-48.587 -53.636)"/></svg>